<?xml version="1.0" standalone="no"?>
<!DOCTYPE svg PUBLIC "-//W3C//DTD SVG 20010904//EN"
 "http://www.w3.org/TR/2001/REC-SVG-20010904/DTD/svg10.dtd">
<svg version="1.0" xmlns="http://www.w3.org/2000/svg"
 width="512.000000pt" height="512.000000pt" viewBox="0 0 512.000000 512.000000"
 preserveAspectRatio="xMidYMid meet">
<metadata>
Created by potrace 1.11, written by Peter Selinger 2001-2013
</metadata>
<g transform="translate(0.000000,512.000000) scale(0.100000,-0.100000)"
fill="#000000" stroke="none">
<path d="M2670 4245 c-245 -101 -624 -256 -842 -345 l-398 -163 0 -701 0 -701
-92 0 c-109 0 -113 -1 -312 -109 -178 -97 -234 -143 -278 -234 -31 -62 -33
-74 -33 -167 0 -90 3 -106 29 -160 37 -74 108 -144 183 -182 67 -32 188 -44
257 -23 23 6 110 48 195 93 185 98 254 156 297 249 l29 63 5 784 5 783 185 73
c395 157 950 375 955 375 3 0 5 -242 5 -537 l0 -538 -103 0 c-115 0 -101 5
-347 -130 -177 -98 -230 -157 -266 -297 -30 -115 4 -241 88 -333 65 -71 118
-102 207 -120 97 -21 172 -8 276 45 272 141 340 193 392 298 l28 57 3 1053 c2
844 0 1052 -10 1051 -7 0 -213 -83 -458 -184z"/>
<path d="M3940 3346 l-405 -161 -3 -705 -2 -705 -75 3 c-107 6 -149 -8 -329
-106 -189 -103 -244 -149 -288 -240 -30 -61 -33 -76 -33 -162 0 -102 15 -150
72 -233 36 -52 125 -114 190 -133 68 -20 176 -19 233 1 25 9 116 55 203 102
180 98 239 152 279 251 l23 57 5 779 5 779 265 103 265 102 3 112 c1 61 1 157
0 214 l-3 102 -405 -160z"/>
</g>
</svg>
