<?xml version="1.0" encoding="iso-8859-1"?>
<!-- Generator: Adobe Illustrator 19.0.0, SVG Export Plug-In . SVG Version: 6.00 Build 0)  -->
<svg version="1.1" id="Capa_1" xmlns="http://www.w3.org/2000/svg" xmlns:xlink="http://www.w3.org/1999/xlink" x="0px" y="0px"
	 viewBox="0 0 512 512" style="enable-background:new 0 0 512 512;" xml:space="preserve">
<circle style="fill:#19CFFC;" cx="256" cy="256" r="256"/>
<path style="fill:#1EA1E3;" d="M512,256c0-6.161-0.231-12.268-0.659-18.32L435,161.339l-12.664,15.522L314.054,68.579L168,164.5
	l-2.5,94L87.619,360.79l150.584,150.584C244.084,511.778,250.016,512,256,512C397.385,512,512,397.385,512,256z"/>
<path style="fill:#7A3EB5;" d="M143.48,138.086v141.283c-9.193-2.597-19.368-1.742-28.414,3.199l-24.693,13.488
	c-18.335,10.015-25.079,32.997-15.064,51.332s32.997,25.079,51.332,15.064l24.692-13.488c12.685-6.929,19.817-20.065,19.694-33.575
	v-146.81l115.478-45.716v109.613c-9.193-2.597-19.368-1.742-28.414,3.199l-24.693,13.488
	c-18.335,10.015-25.079,32.997-15.064,51.332s32.997,25.079,51.332,15.064l24.692-13.488c12.685-6.929,19.817-20.065,19.694-33.575
	V68.579L143.48,138.086z"/>
<g>
	<path style="fill:#4B1B7A;" d="M221,106.497v42.297l65.506-25.933v109.613c-9.193-2.597-19.368-1.742-28.414,3.199l-24.693,13.488
		c-18.334,10.015-25.079,32.997-15.064,51.332s32.997,25.079,51.332,15.064l24.692-13.488c12.685-6.929,19.817-20.065,19.694-33.575
		V68.579L221,106.497z"/>
	<path style="fill:#4B1B7A;" d="M353.095,194.139v141.283c-9.193-2.597-19.368-1.742-28.414,3.199l-24.693,13.488
		c-18.335,10.015-25.079,32.997-15.064,51.332s32.997,25.079,51.332,15.064l24.692-13.488c12.685-6.929,19.817-20.065,19.694-33.575
		v-146.81L435,203.519v-42.18L353.095,194.139z"/>
</g>
<g>
</g>
<g>
</g>
<g>
</g>
<g>
</g>
<g>
</g>
<g>
</g>
<g>
</g>
<g>
</g>
<g>
</g>
<g>
</g>
<g>
</g>
<g>
</g>
<g>
</g>
<g>
</g>
<g>
</g>
</svg>
